<svg width="32" height="32" viewBox="0 0 32 32" fill="none" xmlns="http://www.w3.org/2000/svg">
<path d="M23 5H9C7.67441 5.00159 6.40356 5.52888 5.46622 6.46622C4.52888 7.40356 4.00159 8.67441 4 10L4 22C4.00159 23.3256 4.52888 24.5964 5.46622 25.5338C6.40356 26.4711 7.67441 26.9984 9 27H23C24.3256 26.9984 25.5964 26.4711 26.5338 25.5338C27.4711 24.5964 27.9984 23.3256 28 22V10C27.9984 8.67441 27.4711 7.40356 26.5338 6.46622C25.5964 5.52888 24.3256 5.00159 23 5ZM9 7H23C23.5988 7.00118 24.1835 7.18152 24.679 7.5178C25.1744 7.85409 25.5579 8.33095 25.78 8.887L18.122 16.546C17.5584 17.1073 16.7954 17.4225 16 17.4225C15.2046 17.4225 14.4416 17.1073 13.878 16.546L6.22 8.887C6.44215 8.33095 6.82561 7.85409 7.32105 7.5178C7.81648 7.18152 8.40121 7.00118 9 7ZM23 25H9C8.20435 25 7.44129 24.6839 6.87868 24.1213C6.31607 23.5587 6 22.7957 6 22V11.5L12.464 17.96C13.4026 18.8963 14.6743 19.422 16 19.422C17.3257 19.422 18.5974 18.8963 19.536 17.96L26 11.5V22C26 22.7957 25.6839 23.5587 25.1213 24.1213C24.5587 24.6839 23.7956 25 23 25Z" fill="black"/>
</svg>
