<svg width="32" height="32" viewBox="0 0 32 32" fill="none" xmlns="http://www.w3.org/2000/svg">
<path d="M27.7068 4.29303C27.5193 4.10556 27.2649 4.00024 26.9998 4.00024C26.7346 4.00024 26.4803 4.10556 26.2928 4.29303L15.9998 14.586L5.70679 4.29303C5.51926 4.10556 5.26495 4.00024 4.99979 4.00024C4.73462 4.00024 4.48031 4.10556 4.29279 4.29303C4.10532 4.48056 4 4.73487 4 5.00003C4 5.26519 4.10532 5.5195 4.29279 5.70703L14.5858 16L4.29279 26.293C4.10532 26.4806 4 26.7349 4 27C4 27.2652 4.10532 27.5195 4.29279 27.707C4.48031 27.8945 4.73462 27.9998 4.99979 27.9998C5.26495 27.9998 5.51926 27.8945 5.70679 27.707L15.9998 17.414L26.2928 27.707C26.4803 27.8945 26.7346 27.9998 26.9998 27.9998C27.2649 27.9998 27.5193 27.8945 27.7068 27.707C27.8943 27.5195 27.9996 27.2652 27.9996 27C27.9996 26.7349 27.8943 26.4806 27.7068 26.293L17.4138 16L27.7068 5.70703C27.8943 5.5195 27.9996 5.26519 27.9996 5.00003C27.9996 4.73487 27.8943 4.48056 27.7068 4.29303Z" fill="black"/>
</svg>
