<svg width="32" height="32" viewBox="0 0 32 32" fill="none" xmlns="http://www.w3.org/2000/svg">
<path d="M23 12.424V11C23 9.14348 22.2625 7.36301 20.9498 6.05025C19.637 4.7375 17.8565 4 16 4C14.1435 4 12.363 4.7375 11.0503 6.05025C9.7375 7.36301 9 9.14348 9 11V12.424C8.10936 12.8127 7.35129 13.4525 6.8185 14.2652C6.28571 15.0779 6.00128 16.0282 6 17V23C6.00159 24.3256 6.52888 25.5964 7.46622 26.5338C8.40356 27.4711 9.67441 27.9984 11 28H21C22.3256 27.9984 23.5964 27.4711 24.5338 26.5338C25.4711 25.5964 25.9984 24.3256 26 23V17C25.9987 16.0282 25.7143 15.0779 25.1815 14.2652C24.6487 13.4525 23.8906 12.8127 23 12.424ZM11 11C11 9.67392 11.5268 8.40215 12.4645 7.46447C13.4021 6.52678 14.6739 6 16 6C17.3261 6 18.5979 6.52678 19.5355 7.46447C20.4732 8.40215 21 9.67392 21 11V12H11V11ZM24 23C24 23.7956 23.6839 24.5587 23.1213 25.1213C22.5587 25.6839 21.7957 26 21 26H11C10.2044 26 9.44129 25.6839 8.87868 25.1213C8.31607 24.5587 8 23.7956 8 23V17C8 16.2043 8.31607 15.4413 8.87868 14.8787C9.44129 14.3161 10.2044 14 11 14H21C21.7957 14 22.5587 14.3161 23.1213 14.8787C23.6839 15.4413 24 16.2043 24 17V23Z" fill="black"/>
<path d="M16 18C15.7348 18 15.4804 18.1054 15.2929 18.2929C15.1054 18.4804 15 18.7348 15 19V21C15 21.2652 15.1054 21.5196 15.2929 21.7071C15.4804 21.8946 15.7348 22 16 22C16.2652 22 16.5196 21.8946 16.7071 21.7071C16.8946 21.5196 17 21.2652 17 21V19C17 18.7348 16.8946 18.4804 16.7071 18.2929C16.5196 18.1054 16.2652 18 16 18Z" fill="black"/>
</svg>
