<svg width="32" height="32" viewBox="0 0 32 32" fill="none" xmlns="http://www.w3.org/2000/svg">
<path fill-rule="evenodd" clip-rule="evenodd" d="M23 6H21V4H23C25.7614 4 28 6.23858 28 9V11H26V9C26 7.34315 24.6569 6 23 6ZM6 11V9C6 7.34315 7.34315 6 9 6H11V4H9C6.23858 4 4 6.23858 4 9V11H6ZM4 21H6V23C6 24.6569 7.34315 26 9 26H11V28H9C6.23858 28 4 25.7614 4 23V21ZM26 21H28V23C28 25.7614 25.7614 28 23 28H21V26H23C24.6569 26 26 24.6569 26 23V21Z" fill="black"/>
<rect x="6" y="15" width="20" height="2" rx="1" fill="black"/>
</svg>
