<svg width="24" height="24" viewBox="0 0 24 24" fill="none" xmlns="http://www.w3.org/2000/svg">
<g clip-path="url(#clip0)">
<path d="M11.25 8H5.75C4.785 8 4 8.785 4 9.75V15.25C4 16.215 4.785 17 5.75 17H11.25C12.215 17 13 16.215 13 15.25V9.75C13 8.785 12.215 8 11.25 8ZM5.75 9.5H11.25C11.388 9.5 11.5 9.612 11.5 9.75V12.335C10.772 11.846 9.69 11.953 9.134 12.661L8.615 13.31C8.454 13.508 8.295 13.383 8.24 13.329C7.556 12.645 6.443 12.645 5.76 13.329L5.5 13.589V9.75C5.5 9.612 5.612 9.5 5.75 9.5Z" fill="black"/>
<path d="M21 1H3C1.346 1 0 2.346 0 4V20C0 21.654 1.346 23 3 23H21C22.654 23 24 21.654 24 20V4C24 2.346 22.654 1 21 1ZM21 21H3C2.449 21 2 20.552 2 20V6H22V20C22 20.552 21.551 21 21 21Z" fill="black"/>
<path d="M19 12H15C14.448 12 14 11.552 14 11C14 10.448 14.448 10 15 10H19C19.552 10 20 10.448 20 11C20 11.552 19.552 12 19 12Z" fill="black"/>
<path d="M19 16H15C14.448 16 14 15.552 14 15C14 14.448 14.448 14 15 14H19C19.552 14 20 14.448 20 15C20 15.552 19.552 16 19 16Z" fill="black"/>
<path d="M19 20H5C4.448 20 4 19.552 4 19C4 18.448 4.448 18 5 18H19C19.552 18 20 18.448 20 19C20 19.552 19.552 20 19 20Z" fill="black"/>
</g>
<defs>
<clipPath id="clip0">
<rect width="24" height="24" fill="white"/>
</clipPath>
</defs>
</svg>
