<svg width="32" height="32" viewBox="0 0 32 32" fill="none" xmlns="http://www.w3.org/2000/svg">
<path d="M20.3489 28.0041C20.2173 28.0048 20.0869 27.9796 19.965 27.9298C19.8432 27.8801 19.7324 27.8068 19.6389 27.7141L11.4689 19.5441C11.0033 19.0796 10.6339 18.5279 10.3818 17.9204C10.1297 17.313 10 16.6618 10 16.0041C10 15.3464 10.1297 14.6952 10.3818 14.0877C10.6339 13.4803 11.0033 12.9285 11.4689 12.4641L19.6389 4.29409C19.7322 4.20085 19.8429 4.12689 19.9647 4.07643C20.0865 4.02597 20.2171 4 20.3489 4C20.4808 4 20.6114 4.02597 20.7332 4.07643C20.855 4.12689 20.9657 4.20085 21.0589 4.29409C21.1522 4.38733 21.2261 4.49802 21.2766 4.61984C21.3271 4.74166 21.353 4.87223 21.353 5.00409C21.353 5.13595 21.3271 5.26652 21.2766 5.38834C21.2261 5.51016 21.1522 5.62085 21.0589 5.71409L12.8889 13.8841C12.3271 14.4466 12.0116 15.2091 12.0116 16.0041C12.0116 16.7991 12.3271 17.5616 12.8889 18.1241L21.0589 26.2941C21.1527 26.387 21.2271 26.4976 21.2778 26.6195C21.3286 26.7414 21.3547 26.8721 21.3547 27.0041C21.3547 27.1361 21.3286 27.2668 21.2778 27.3887C21.2271 27.5105 21.1527 27.6211 21.0589 27.7141C20.9655 27.8068 20.8547 27.8801 20.7328 27.9298C20.611 27.9796 20.4805 28.0048 20.3489 28.0041Z" fill="black"/>
</svg>
