<svg width="24" height="24" viewBox="0 0 24 24" fill="none" xmlns="http://www.w3.org/2000/svg">
<path d="M12 0.00195312C5.37328 0.00195312 0 5.37418 0 12.0014C0 18.6287 5.37275 24.0009 12 24.0009C18.6278 24.0009 24 18.6287 24 12.0014C24 5.37418 18.6278 0.00195312 12 0.00195312ZM12 3.58993C14.1927 3.58993 15.9696 5.36732 15.9696 7.55901C15.9696 9.75123 14.1927 11.5281 12 11.5281C9.80831 11.5281 8.03145 9.75123 8.03145 7.55901C8.03145 5.36732 9.80831 3.58993 12 3.58993ZM11.9974 20.8636C9.81042 20.8636 7.80743 20.0671 6.2625 18.7489C5.88615 18.4279 5.66898 17.9571 5.66898 17.4633C5.66898 15.2405 7.46798 13.4615 9.69129 13.4615H14.3098C16.5336 13.4615 18.3257 15.2405 18.3257 17.4633C18.3257 17.9577 18.1096 18.4273 17.7328 18.7483C16.1884 20.0671 14.1848 20.8636 11.9974 20.8636Z" fill="black"/>
</svg>
