<svg width="32" height="32" viewBox="0 0 32 32" fill="none" xmlns="http://www.w3.org/2000/svg">
<g clip-path="url(#clip0_253_178)">
<path d="M16 16C17.1867 16 18.3467 15.6481 19.3334 14.9888C20.3201 14.3295 21.0892 13.3925 21.5433 12.2961C21.9974 11.1997 22.1162 9.99335 21.8847 8.82946C21.6532 7.66557 21.0818 6.59648 20.2426 5.75736C19.4035 4.91825 18.3344 4.3468 17.1705 4.11529C16.0067 3.88378 14.8003 4.0026 13.7039 4.45673C12.6075 4.91085 11.6705 5.67989 11.0112 6.66658C10.3519 7.65328 10 8.81331 10 10C10.0016 11.5908 10.6342 13.116 11.7591 14.2409C12.884 15.3658 14.4092 15.9984 16 16ZM16 6C16.7911 6 17.5645 6.2346 18.2223 6.67412C18.8801 7.11365 19.3928 7.73836 19.6955 8.46927C19.9983 9.20017 20.0775 10.0044 19.9231 10.7804C19.7688 11.5563 19.3878 12.269 18.8284 12.8284C18.269 13.3878 17.5563 13.7688 16.7804 13.9231C16.0044 14.0775 15.2002 13.9983 14.4693 13.6955C13.7384 13.3928 13.1136 12.8801 12.6741 12.2223C12.2346 11.5645 12 10.7911 12 10C12 8.93914 12.4214 7.92172 13.1716 7.17157C13.9217 6.42143 14.9391 6 16 6Z" fill="black"/>
<path d="M16 18C13.6139 18.0026 11.3262 18.9517 9.63896 20.639C7.95171 22.3262 7.00265 24.6139 7 27C7 27.2652 7.10536 27.5196 7.29289 27.7071C7.48043 27.8946 7.73478 28 8 28C8.26522 28 8.51957 27.8946 8.70711 27.7071C8.89464 27.5196 9 27.2652 9 27C9 25.1435 9.7375 23.363 11.0503 22.0503C12.363 20.7375 14.1435 20 16 20C17.8565 20 19.637 20.7375 20.9497 22.0503C22.2625 23.363 23 25.1435 23 27C23 27.2652 23.1053 27.5196 23.2929 27.7071C23.4804 27.8946 23.7348 28 24 28C24.2652 28 24.5196 27.8946 24.7071 27.7071C24.8946 27.5196 25 27.2652 25 27C24.9973 24.6139 24.0483 22.3262 22.361 20.639C20.6738 18.9517 18.3861 18.0026 16 18Z" fill="black"/>
</g>
<defs>
<clipPath id="clip0_253_178">
<rect width="24" height="24" fill="white" transform="translate(4 4)"/>
</clipPath>
</defs>
</svg>
